# xmcd CD database file
#
# Track frame offsets:
#	150
#	18476
#	36408
#	53389
#	73034
#	88124
#	110999
#	126183
#	143118
#	161138
#	179094
#	204658
#
# Disc length: 3092 seconds
#
# Revision: 1
# Processed by: cddbd v1.5.2PL0 Copyright (c) Steve Scherf et al.
# Submitted via: CDex 1.70beta2
#
DISCID=b60c120c
DTITLE=PAUL CAMILLERI - PAUL CAMILLERI
DYEAR=2000
DGENRE=Blues
TTITLE0=Fall in love again
TTITLE1=Cryin' over you
TTITLE2=The thrill is gone
TTITLE3=Dyin' in the cold
TTITLE4=I know what you're thinkin'
TTITLE5=Don't turn your back on me baby
TTITLE6=I can't forgive
TTITLE7=You're the one for me
TTITLE8=By your side
TTITLE9=I heard it through the grapevine
TTITLE10=You've been so good to me
TTITLE11=Don't you think about lyin'
EXTD=YEAR: 2000
EXTT0=
EXTT1=
EXTT2=
EXTT3=
EXTT4=
EXTT5=
EXTT6=
EXTT7=
EXTT8=
EXTT9=
EXTT10=
EXTT11=
PLAYORDER=
